<mxfile host="app.diagrams.net" modified="2023-10-24T13:35:12.227Z" agent="Mozilla/5.0 (Windows NT 10.0; Win64; x64) AppleWebKit/537.36 (KHTML, like Gecko) Chrome/118.0.0.0 Safari/537.36" etag="UWeHxSXJAcM_Lc29s6qM" version="22.0.6" type="github">
  <diagram name="Page-1" id="B3uiDc8BCZwYj67l_rV6">
    <mxGraphModel dx="2074" dy="1118" grid="1" gridSize="9" guides="1" tooltips="1" connect="1" arrows="1" fold="1" page="1" pageScale="1" pageWidth="1600" pageHeight="1200" math="0" shadow="0">
      <root>
        <mxCell id="0" />
        <mxCell id="1" parent="0" />
        <mxCell id="Jv8CxRxAPjhoaw4eL_sK-127" style="edgeStyle=none;shape=connector;rounded=0;orthogonalLoop=1;jettySize=auto;html=1;exitX=0.5;exitY=0;exitDx=0;exitDy=0;entryX=0.5;entryY=1;entryDx=0;entryDy=0;labelBackgroundColor=default;strokeColor=default;align=center;verticalAlign=middle;fontFamily=Helvetica;fontSize=11;fontColor=default;endArrow=none;endFill=0;" parent="1" source="Jv8CxRxAPjhoaw4eL_sK-25" target="Jv8CxRxAPjhoaw4eL_sK-29" edge="1">
          <mxGeometry relative="1" as="geometry" />
        </mxCell>
        <mxCell id="Jv8CxRxAPjhoaw4eL_sK-25" value="Players" style="rounded=1;arcSize=10;whiteSpace=wrap;html=1;align=center;fillColor=#80FF84;" parent="1" vertex="1">
          <mxGeometry x="399" y="266.97" width="100" height="40" as="geometry" />
        </mxCell>
        <mxCell id="Jv8CxRxAPjhoaw4eL_sK-26" value="Management_Team" style="rounded=1;arcSize=10;whiteSpace=wrap;html=1;align=center;fillColor=#80FF84;" parent="1" vertex="1">
          <mxGeometry x="399" y="591" width="114" height="39" as="geometry" />
        </mxCell>
        <mxCell id="Jv8CxRxAPjhoaw4eL_sK-128" style="edgeStyle=none;shape=connector;rounded=0;orthogonalLoop=1;jettySize=auto;html=1;exitX=0.5;exitY=1;exitDx=0;exitDy=0;entryX=0.5;entryY=0;entryDx=0;entryDy=0;labelBackgroundColor=default;strokeColor=default;align=center;verticalAlign=middle;fontFamily=Helvetica;fontSize=11;fontColor=default;endArrow=none;endFill=0;" parent="1" source="Jv8CxRxAPjhoaw4eL_sK-27" target="Jv8CxRxAPjhoaw4eL_sK-25" edge="1">
          <mxGeometry relative="1" as="geometry" />
        </mxCell>
        <mxCell id="Jv8CxRxAPjhoaw4eL_sK-27" value="Salary" style="ellipse;whiteSpace=wrap;html=1;align=center;" parent="1" vertex="1">
          <mxGeometry x="459" y="122" width="81" height="29" as="geometry" />
        </mxCell>
        <mxCell id="Jv8CxRxAPjhoaw4eL_sK-131" style="edgeStyle=none;shape=connector;rounded=0;orthogonalLoop=1;jettySize=auto;html=1;exitX=0.5;exitY=1;exitDx=0;exitDy=0;entryX=0.5;entryY=0;entryDx=0;entryDy=0;labelBackgroundColor=default;strokeColor=default;align=center;verticalAlign=middle;fontFamily=Helvetica;fontSize=11;fontColor=default;endArrow=none;endFill=0;" parent="1" source="Jv8CxRxAPjhoaw4eL_sK-28" target="Jv8CxRxAPjhoaw4eL_sK-25" edge="1">
          <mxGeometry relative="1" as="geometry" />
        </mxCell>
        <mxCell id="Jv8CxRxAPjhoaw4eL_sK-132" style="edgeStyle=none;shape=connector;rounded=0;orthogonalLoop=1;jettySize=auto;html=1;exitX=1;exitY=0;exitDx=0;exitDy=0;labelBackgroundColor=default;strokeColor=default;align=center;verticalAlign=middle;fontFamily=Helvetica;fontSize=11;fontColor=default;endArrow=none;endFill=0;" parent="1" source="Jv8CxRxAPjhoaw4eL_sK-28" edge="1">
          <mxGeometry relative="1" as="geometry">
            <mxPoint x="441" y="270" as="targetPoint" />
          </mxGeometry>
        </mxCell>
        <mxCell id="Jv8CxRxAPjhoaw4eL_sK-28" value="&lt;font style=&quot;font-size: 12px;&quot;&gt;PlayerID&lt;/font&gt;" style="ellipse;whiteSpace=wrap;html=1;align=center;fontStyle=4;" parent="1" vertex="1">
          <mxGeometry x="288" y="196" width="72" height="29" as="geometry" />
        </mxCell>
        <mxCell id="Jv8CxRxAPjhoaw4eL_sK-29" value="Position" style="ellipse;whiteSpace=wrap;html=1;align=center;" parent="1" vertex="1">
          <mxGeometry x="432" y="151" width="81" height="29" as="geometry" />
        </mxCell>
        <mxCell id="Jv8CxRxAPjhoaw4eL_sK-30" value="Age" style="ellipse;whiteSpace=wrap;html=1;align=center;" parent="1" vertex="1">
          <mxGeometry x="306" y="163.5" width="72" height="31" as="geometry" />
        </mxCell>
        <mxCell id="Jv8CxRxAPjhoaw4eL_sK-130" style="edgeStyle=none;shape=connector;rounded=0;orthogonalLoop=1;jettySize=auto;html=1;exitX=0.5;exitY=1;exitDx=0;exitDy=0;entryX=0.5;entryY=0;entryDx=0;entryDy=0;labelBackgroundColor=default;strokeColor=default;align=center;verticalAlign=middle;fontFamily=Helvetica;fontSize=11;fontColor=default;endArrow=none;endFill=0;" parent="1" source="Jv8CxRxAPjhoaw4eL_sK-31" target="Jv8CxRxAPjhoaw4eL_sK-25" edge="1">
          <mxGeometry relative="1" as="geometry" />
        </mxCell>
        <mxCell id="Jv8CxRxAPjhoaw4eL_sK-31" value="First_Name" style="ellipse;whiteSpace=wrap;html=1;align=center;" parent="1" vertex="1">
          <mxGeometry x="333" y="132.5" width="79" height="31" as="geometry" />
        </mxCell>
        <mxCell id="Jv8CxRxAPjhoaw4eL_sK-129" style="edgeStyle=none;shape=connector;rounded=0;orthogonalLoop=1;jettySize=auto;html=1;exitX=0.5;exitY=1;exitDx=0;exitDy=0;entryX=0.5;entryY=0;entryDx=0;entryDy=0;labelBackgroundColor=default;strokeColor=default;align=center;verticalAlign=middle;fontFamily=Helvetica;fontSize=11;fontColor=default;endArrow=none;endFill=0;" parent="1" source="Jv8CxRxAPjhoaw4eL_sK-32" target="Jv8CxRxAPjhoaw4eL_sK-25" edge="1">
          <mxGeometry relative="1" as="geometry" />
        </mxCell>
        <mxCell id="Jv8CxRxAPjhoaw4eL_sK-32" value="Last_Name" style="ellipse;whiteSpace=wrap;html=1;align=center;" parent="1" vertex="1">
          <mxGeometry x="397" y="180" width="86" height="30.5" as="geometry" />
        </mxCell>
        <mxCell id="Jv8CxRxAPjhoaw4eL_sK-122" style="rounded=0;orthogonalLoop=1;jettySize=auto;html=1;exitX=0.5;exitY=0;exitDx=0;exitDy=0;entryX=0.5;entryY=1;entryDx=0;entryDy=0;endArrow=none;endFill=0;" parent="1" source="Jv8CxRxAPjhoaw4eL_sK-40" target="Jv8CxRxAPjhoaw4eL_sK-43" edge="1">
          <mxGeometry relative="1" as="geometry" />
        </mxCell>
        <mxCell id="Jv8CxRxAPjhoaw4eL_sK-123" style="edgeStyle=none;shape=connector;rounded=0;orthogonalLoop=1;jettySize=auto;html=1;entryX=0.5;entryY=1;entryDx=0;entryDy=0;labelBackgroundColor=default;strokeColor=default;align=center;verticalAlign=middle;fontFamily=Helvetica;fontSize=11;fontColor=default;endArrow=none;endFill=0;exitX=0.5;exitY=0;exitDx=0;exitDy=0;" parent="1" source="Jv8CxRxAPjhoaw4eL_sK-40" target="Jv8CxRxAPjhoaw4eL_sK-45" edge="1">
          <mxGeometry relative="1" as="geometry">
            <mxPoint x="747" y="432" as="sourcePoint" />
          </mxGeometry>
        </mxCell>
        <mxCell id="Jv8CxRxAPjhoaw4eL_sK-40" value="Scout_Team" style="rounded=1;arcSize=10;whiteSpace=wrap;html=1;align=center;fillColor=#80FF84;" parent="1" vertex="1">
          <mxGeometry x="737.27" y="437" width="100" height="40" as="geometry" />
        </mxCell>
        <mxCell id="Jv8CxRxAPjhoaw4eL_sK-146" style="edgeStyle=none;shape=connector;rounded=0;orthogonalLoop=1;jettySize=auto;html=1;exitX=0.5;exitY=0;exitDx=0;exitDy=0;labelBackgroundColor=default;strokeColor=default;align=center;verticalAlign=middle;fontFamily=Helvetica;fontSize=11;fontColor=default;endArrow=none;endFill=0;entryX=0.5;entryY=1;entryDx=0;entryDy=0;" parent="1" target="Jv8CxRxAPjhoaw4eL_sK-145" edge="1">
          <mxGeometry relative="1" as="geometry">
            <mxPoint x="70" y="252" as="targetPoint" />
            <mxPoint x="70" y="270" as="sourcePoint" />
          </mxGeometry>
        </mxCell>
        <mxCell id="Jv8CxRxAPjhoaw4eL_sK-92" style="rounded=0;orthogonalLoop=1;jettySize=auto;html=1;exitX=0.5;exitY=1;exitDx=0;exitDy=0;entryX=0.5;entryY=0;entryDx=0;entryDy=0;strokeColor=#000000;endArrow=none;endFill=0;" parent="1" source="Jv8CxRxAPjhoaw4eL_sK-42" target="Jv8CxRxAPjhoaw4eL_sK-91" edge="1">
          <mxGeometry relative="1" as="geometry" />
        </mxCell>
        <mxCell id="Jv8CxRxAPjhoaw4eL_sK-96" style="rounded=0;orthogonalLoop=1;jettySize=auto;html=1;exitX=0.5;exitY=1;exitDx=0;exitDy=0;entryX=0.5;entryY=0;entryDx=0;entryDy=0;endArrow=none;endFill=0;" parent="1" source="Jv8CxRxAPjhoaw4eL_sK-42" target="Jv8CxRxAPjhoaw4eL_sK-93" edge="1">
          <mxGeometry relative="1" as="geometry" />
        </mxCell>
        <mxCell id="Jv8CxRxAPjhoaw4eL_sK-113" style="rounded=0;orthogonalLoop=1;jettySize=auto;html=1;exitX=0.5;exitY=1;exitDx=0;exitDy=0;entryX=0.5;entryY=0;entryDx=0;entryDy=0;endArrow=none;endFill=0;" parent="1" source="Jv8CxRxAPjhoaw4eL_sK-42" target="Jv8CxRxAPjhoaw4eL_sK-111" edge="1">
          <mxGeometry relative="1" as="geometry" />
        </mxCell>
        <mxCell id="ptD6OZxUXEIBR8QLuf2V-7" style="rounded=0;orthogonalLoop=1;jettySize=auto;html=1;exitX=0.5;exitY=1;exitDx=0;exitDy=0;entryX=0.5;entryY=0;entryDx=0;entryDy=0;endArrow=none;endFill=0;" parent="1" source="Jv8CxRxAPjhoaw4eL_sK-42" target="ptD6OZxUXEIBR8QLuf2V-6" edge="1">
          <mxGeometry relative="1" as="geometry" />
        </mxCell>
        <mxCell id="Jv8CxRxAPjhoaw4eL_sK-42" value="Stadium" style="rounded=1;arcSize=10;whiteSpace=wrap;html=1;align=center;fillColor=#80FF84;" parent="1" vertex="1">
          <mxGeometry x="220" y="801" width="100" height="40" as="geometry" />
        </mxCell>
        <mxCell id="Jv8CxRxAPjhoaw4eL_sK-126" style="edgeStyle=none;shape=connector;rounded=0;orthogonalLoop=1;jettySize=auto;html=1;exitX=0.5;exitY=1;exitDx=0;exitDy=0;labelBackgroundColor=default;strokeColor=default;align=center;verticalAlign=middle;fontFamily=Helvetica;fontSize=11;fontColor=default;endArrow=none;endFill=0;entryX=0.5;entryY=0;entryDx=0;entryDy=0;" parent="1" source="Jv8CxRxAPjhoaw4eL_sK-44" target="Jv8CxRxAPjhoaw4eL_sK-40" edge="1">
          <mxGeometry relative="1" as="geometry">
            <mxPoint x="747" y="459" as="targetPoint" />
          </mxGeometry>
        </mxCell>
        <mxCell id="Jv8CxRxAPjhoaw4eL_sK-125" style="edgeStyle=none;shape=connector;rounded=0;orthogonalLoop=1;jettySize=auto;html=1;exitX=0.5;exitY=1;exitDx=0;exitDy=0;entryX=0.5;entryY=0;entryDx=0;entryDy=0;labelBackgroundColor=default;strokeColor=default;align=center;verticalAlign=middle;fontFamily=Helvetica;fontSize=11;fontColor=default;endArrow=none;endFill=0;" parent="1" source="Jv8CxRxAPjhoaw4eL_sK-46" target="Jv8CxRxAPjhoaw4eL_sK-40" edge="1">
          <mxGeometry relative="1" as="geometry" />
        </mxCell>
        <mxCell id="Jv8CxRxAPjhoaw4eL_sK-43" value="First_Name" style="ellipse;whiteSpace=wrap;html=1;align=center;rotation=0;" parent="1" vertex="1">
          <mxGeometry x="855" y="372.21" width="88.23" height="26.79" as="geometry" />
        </mxCell>
        <mxCell id="Jv8CxRxAPjhoaw4eL_sK-44" value="Last_Name" style="ellipse;whiteSpace=wrap;html=1;align=center;rotation=0;" parent="1" vertex="1">
          <mxGeometry x="684" y="343" width="90" height="27" as="geometry" />
        </mxCell>
        <mxCell id="Jv8CxRxAPjhoaw4eL_sK-45" value="Region" style="ellipse;whiteSpace=wrap;html=1;align=center;rotation=0;" parent="1" vertex="1">
          <mxGeometry x="793.73" y="344" width="94.5" height="27" as="geometry" />
        </mxCell>
        <mxCell id="Jv8CxRxAPjhoaw4eL_sK-46" value="ScoutID" style="ellipse;whiteSpace=wrap;html=1;align=center;fontStyle=4;rotation=0;" parent="1" vertex="1">
          <mxGeometry x="737.27" y="369" width="90.73" height="30" as="geometry" />
        </mxCell>
        <mxCell id="Jv8CxRxAPjhoaw4eL_sK-47" value="Medical_Team" style="rounded=1;arcSize=10;whiteSpace=wrap;html=1;align=center;fillColor=#80FF84;" parent="1" vertex="1">
          <mxGeometry x="110" y="477" width="100" height="40" as="geometry" />
        </mxCell>
        <mxCell id="Jv8CxRxAPjhoaw4eL_sK-56" value="Board_of_Directors" style="rounded=1;arcSize=10;whiteSpace=wrap;html=1;align=center;fillColor=#80FF84;" parent="1" vertex="1">
          <mxGeometry x="621" y="801" width="110" height="40" as="geometry" />
        </mxCell>
        <mxCell id="Jv8CxRxAPjhoaw4eL_sK-57" value="Finance_Team" style="rounded=1;arcSize=10;whiteSpace=wrap;html=1;align=center;strokeColor=#000000;fillColor=#80FF84;" parent="1" vertex="1">
          <mxGeometry x="774" y="610" width="110" height="40" as="geometry" />
        </mxCell>
        <mxCell id="Jv8CxRxAPjhoaw4eL_sK-91" value="Seat_No" style="ellipse;whiteSpace=wrap;html=1;align=center;fontStyle=4;" parent="1" vertex="1">
          <mxGeometry x="120" y="882" width="79" height="29" as="geometry" />
        </mxCell>
        <mxCell id="Jv8CxRxAPjhoaw4eL_sK-93" value="Stand" style="ellipse;whiteSpace=wrap;html=1;align=center;" parent="1" vertex="1">
          <mxGeometry x="182" y="911" width="74" height="29" as="geometry" />
        </mxCell>
        <mxCell id="Jv8CxRxAPjhoaw4eL_sK-111" value="Capacity" style="ellipse;whiteSpace=wrap;html=1;align=center;" parent="1" vertex="1">
          <mxGeometry x="239" y="891" width="81" height="29" as="geometry" />
        </mxCell>
        <mxCell id="Jv8CxRxAPjhoaw4eL_sK-138" style="edgeStyle=none;shape=connector;rounded=0;orthogonalLoop=1;jettySize=auto;html=1;exitX=0.5;exitY=1;exitDx=0;exitDy=0;labelBackgroundColor=default;strokeColor=default;align=center;verticalAlign=middle;fontFamily=Helvetica;fontSize=11;fontColor=default;endArrow=none;endFill=0;" parent="1" source="Jv8CxRxAPjhoaw4eL_sK-133" edge="1">
          <mxGeometry relative="1" as="geometry">
            <mxPoint x="162" y="477" as="targetPoint" />
          </mxGeometry>
        </mxCell>
        <mxCell id="Jv8CxRxAPjhoaw4eL_sK-139" style="edgeStyle=none;shape=connector;rounded=0;orthogonalLoop=1;jettySize=auto;html=1;exitX=0.5;exitY=1;exitDx=0;exitDy=0;labelBackgroundColor=default;strokeColor=default;align=center;verticalAlign=middle;fontFamily=Helvetica;fontSize=11;fontColor=default;endArrow=none;endFill=0;" parent="1" source="Jv8CxRxAPjhoaw4eL_sK-134" edge="1">
          <mxGeometry relative="1" as="geometry">
            <mxPoint x="162" y="477" as="targetPoint" />
          </mxGeometry>
        </mxCell>
        <mxCell id="Jv8CxRxAPjhoaw4eL_sK-133" value="Last_Name" style="ellipse;whiteSpace=wrap;html=1;align=center;" parent="1" vertex="1">
          <mxGeometry x="124" y="398" width="86" height="30.5" as="geometry" />
        </mxCell>
        <mxCell id="Jv8CxRxAPjhoaw4eL_sK-134" value="First_Name" style="ellipse;whiteSpace=wrap;html=1;align=center;" parent="1" vertex="1">
          <mxGeometry x="189" y="367" width="79" height="31" as="geometry" />
        </mxCell>
        <mxCell id="Jv8CxRxAPjhoaw4eL_sK-135" value="&lt;font style=&quot;font-size: 12px;&quot;&gt;MedicID&lt;/font&gt;" style="ellipse;whiteSpace=wrap;html=1;align=center;fontStyle=4;" parent="1" vertex="1">
          <mxGeometry x="72" y="367" width="72" height="29" as="geometry" />
        </mxCell>
        <mxCell id="Jv8CxRxAPjhoaw4eL_sK-137" style="edgeStyle=none;shape=connector;rounded=0;orthogonalLoop=1;jettySize=auto;html=1;exitX=0.5;exitY=1;exitDx=0;exitDy=0;entryX=0.5;entryY=0;entryDx=0;entryDy=0;labelBackgroundColor=default;strokeColor=default;align=center;verticalAlign=middle;fontFamily=Helvetica;fontSize=11;fontColor=default;endArrow=none;endFill=0;" parent="1" source="Jv8CxRxAPjhoaw4eL_sK-136" target="Jv8CxRxAPjhoaw4eL_sK-47" edge="1">
          <mxGeometry relative="1" as="geometry" />
        </mxCell>
        <mxCell id="Jv8CxRxAPjhoaw4eL_sK-140" style="edgeStyle=none;shape=connector;rounded=0;orthogonalLoop=1;jettySize=auto;html=1;exitX=0.5;exitY=1;exitDx=0;exitDy=0;labelBackgroundColor=default;strokeColor=default;align=center;verticalAlign=middle;fontFamily=Helvetica;fontSize=11;fontColor=default;endArrow=none;endFill=0;" parent="1" source="Jv8CxRxAPjhoaw4eL_sK-135" edge="1">
          <mxGeometry relative="1" as="geometry">
            <mxPoint x="162" y="477" as="targetPoint" />
          </mxGeometry>
        </mxCell>
        <mxCell id="Jv8CxRxAPjhoaw4eL_sK-136" value="Position" style="ellipse;whiteSpace=wrap;html=1;align=center;" parent="1" vertex="1">
          <mxGeometry x="34" y="399" width="86" height="30.5" as="geometry" />
        </mxCell>
        <mxCell id="Jv8CxRxAPjhoaw4eL_sK-150" style="edgeStyle=none;shape=connector;rounded=0;orthogonalLoop=1;jettySize=auto;html=1;exitX=0.5;exitY=1;exitDx=0;exitDy=0;entryX=0.5;entryY=0;entryDx=0;entryDy=0;labelBackgroundColor=default;strokeColor=default;align=center;verticalAlign=middle;fontFamily=Helvetica;fontSize=11;fontColor=default;endArrow=none;endFill=0;" parent="1" source="Jv8CxRxAPjhoaw4eL_sK-141" edge="1">
          <mxGeometry relative="1" as="geometry">
            <mxPoint x="70" y="270" as="targetPoint" />
          </mxGeometry>
        </mxCell>
        <mxCell id="Jv8CxRxAPjhoaw4eL_sK-141" value="Email" style="ellipse;whiteSpace=wrap;html=1;align=center;" parent="1" vertex="1">
          <mxGeometry x="38" y="156.5" width="86" height="30.5" as="geometry" />
        </mxCell>
        <mxCell id="Jv8CxRxAPjhoaw4eL_sK-148" style="edgeStyle=none;shape=connector;rounded=0;orthogonalLoop=1;jettySize=auto;html=1;exitX=0.5;exitY=1;exitDx=0;exitDy=0;entryX=0.5;entryY=0;entryDx=0;entryDy=0;labelBackgroundColor=default;strokeColor=default;align=center;verticalAlign=middle;fontFamily=Helvetica;fontSize=11;fontColor=default;endArrow=none;endFill=0;" parent="1" source="Jv8CxRxAPjhoaw4eL_sK-142" edge="1">
          <mxGeometry relative="1" as="geometry">
            <mxPoint x="70" y="270" as="targetPoint" />
          </mxGeometry>
        </mxCell>
        <mxCell id="Jv8CxRxAPjhoaw4eL_sK-142" value="Last_Name" style="ellipse;whiteSpace=wrap;html=1;align=center;" parent="1" vertex="1">
          <mxGeometry x="120" y="144" width="86" height="30.5" as="geometry" />
        </mxCell>
        <mxCell id="Jv8CxRxAPjhoaw4eL_sK-149" style="edgeStyle=none;shape=connector;rounded=0;orthogonalLoop=1;jettySize=auto;html=1;exitX=0.5;exitY=1;exitDx=0;exitDy=0;entryX=0.5;entryY=0;entryDx=0;entryDy=0;labelBackgroundColor=default;strokeColor=default;align=center;verticalAlign=middle;fontFamily=Helvetica;fontSize=11;fontColor=default;endArrow=none;endFill=0;" parent="1" source="Jv8CxRxAPjhoaw4eL_sK-143" edge="1">
          <mxGeometry relative="1" as="geometry">
            <mxPoint x="70" y="270" as="targetPoint" />
          </mxGeometry>
        </mxCell>
        <mxCell id="Jv8CxRxAPjhoaw4eL_sK-143" value="First_Name" style="ellipse;whiteSpace=wrap;html=1;align=center;" parent="1" vertex="1">
          <mxGeometry x="182" y="165.5" width="86" height="30.5" as="geometry" />
        </mxCell>
        <mxCell id="Jv8CxRxAPjhoaw4eL_sK-147" style="edgeStyle=none;shape=connector;rounded=0;orthogonalLoop=1;jettySize=auto;html=1;exitX=0.5;exitY=1;exitDx=0;exitDy=0;labelBackgroundColor=default;strokeColor=default;align=center;verticalAlign=middle;fontFamily=Helvetica;fontSize=11;fontColor=default;endArrow=none;endFill=0;" parent="1" source="Jv8CxRxAPjhoaw4eL_sK-144" edge="1">
          <mxGeometry relative="1" as="geometry">
            <mxPoint x="72" y="270" as="targetPoint" />
          </mxGeometry>
        </mxCell>
        <mxCell id="Jv8CxRxAPjhoaw4eL_sK-144" value="D.O.B" style="ellipse;whiteSpace=wrap;html=1;align=center;" parent="1" vertex="1">
          <mxGeometry x="162" y="196" width="86" height="30.5" as="geometry" />
        </mxCell>
        <mxCell id="Jv8CxRxAPjhoaw4eL_sK-145" value="Membership_ID" style="ellipse;whiteSpace=wrap;html=1;align=center;fontStyle=4;" parent="1" vertex="1">
          <mxGeometry y="187" width="119" height="39.5" as="geometry" />
        </mxCell>
        <mxCell id="Jv8CxRxAPjhoaw4eL_sK-159" style="edgeStyle=none;shape=connector;rounded=0;orthogonalLoop=1;jettySize=auto;html=1;exitX=1;exitY=0;exitDx=0;exitDy=0;entryX=0;entryY=1;entryDx=0;entryDy=0;labelBackgroundColor=default;strokeColor=default;align=center;verticalAlign=middle;fontFamily=Helvetica;fontSize=11;fontColor=default;endArrow=none;endFill=0;" parent="1" source="Jv8CxRxAPjhoaw4eL_sK-151" target="Jv8CxRxAPjhoaw4eL_sK-26" edge="1">
          <mxGeometry relative="1" as="geometry" />
        </mxCell>
        <mxCell id="Jv8CxRxAPjhoaw4eL_sK-151" value="Last_Name" style="ellipse;whiteSpace=wrap;html=1;align=center;" parent="1" vertex="1">
          <mxGeometry x="189" y="680.5" width="86" height="30.5" as="geometry" />
        </mxCell>
        <mxCell id="Jv8CxRxAPjhoaw4eL_sK-160" style="edgeStyle=none;shape=connector;rounded=0;orthogonalLoop=1;jettySize=auto;html=1;exitX=1;exitY=0;exitDx=0;exitDy=0;entryX=0;entryY=1;entryDx=0;entryDy=0;labelBackgroundColor=default;strokeColor=default;align=center;verticalAlign=middle;fontFamily=Helvetica;fontSize=11;fontColor=default;endArrow=none;endFill=0;" parent="1" source="Jv8CxRxAPjhoaw4eL_sK-152" target="Jv8CxRxAPjhoaw4eL_sK-26" edge="1">
          <mxGeometry relative="1" as="geometry" />
        </mxCell>
        <mxCell id="Jv8CxRxAPjhoaw4eL_sK-152" value="First_Name" style="ellipse;whiteSpace=wrap;html=1;align=center;" parent="1" vertex="1">
          <mxGeometry x="166" y="650" width="86" height="30.5" as="geometry" />
        </mxCell>
        <mxCell id="Jv8CxRxAPjhoaw4eL_sK-158" style="edgeStyle=none;shape=connector;rounded=0;orthogonalLoop=1;jettySize=auto;html=1;exitX=0.5;exitY=0;exitDx=0;exitDy=0;labelBackgroundColor=default;strokeColor=default;align=center;verticalAlign=middle;fontFamily=Helvetica;fontSize=11;fontColor=default;endArrow=none;endFill=0;entryX=0;entryY=1;entryDx=0;entryDy=0;" parent="1" source="Jv8CxRxAPjhoaw4eL_sK-153" target="Jv8CxRxAPjhoaw4eL_sK-26" edge="1">
          <mxGeometry relative="1" as="geometry">
            <mxPoint x="387" y="657" as="targetPoint" />
          </mxGeometry>
        </mxCell>
        <mxCell id="Jv8CxRxAPjhoaw4eL_sK-153" value="Position" style="ellipse;whiteSpace=wrap;html=1;align=center;" parent="1" vertex="1">
          <mxGeometry x="220" y="711" width="86" height="30.5" as="geometry" />
        </mxCell>
        <mxCell id="Jv8CxRxAPjhoaw4eL_sK-156" style="edgeStyle=none;shape=connector;rounded=0;orthogonalLoop=1;jettySize=auto;html=1;exitX=0.5;exitY=0;exitDx=0;exitDy=0;entryX=0;entryY=1;entryDx=0;entryDy=0;labelBackgroundColor=default;strokeColor=default;align=center;verticalAlign=middle;fontFamily=Helvetica;fontSize=11;fontColor=default;endArrow=none;endFill=0;" parent="1" source="Jv8CxRxAPjhoaw4eL_sK-154" target="Jv8CxRxAPjhoaw4eL_sK-26" edge="1">
          <mxGeometry relative="1" as="geometry" />
        </mxCell>
        <mxCell id="Jv8CxRxAPjhoaw4eL_sK-154" value="D.O.B" style="ellipse;whiteSpace=wrap;html=1;align=center;" parent="1" vertex="1">
          <mxGeometry x="256" y="650" width="82" height="30.5" as="geometry" />
        </mxCell>
        <mxCell id="Jv8CxRxAPjhoaw4eL_sK-157" style="edgeStyle=none;shape=connector;rounded=0;orthogonalLoop=1;jettySize=auto;html=1;exitX=1;exitY=0.5;exitDx=0;exitDy=0;entryX=0;entryY=1;entryDx=0;entryDy=0;labelBackgroundColor=default;strokeColor=default;align=center;verticalAlign=middle;fontFamily=Helvetica;fontSize=11;fontColor=default;endArrow=none;endFill=0;" parent="1" source="Jv8CxRxAPjhoaw4eL_sK-155" target="Jv8CxRxAPjhoaw4eL_sK-26" edge="1">
          <mxGeometry relative="1" as="geometry" />
        </mxCell>
        <mxCell id="Jv8CxRxAPjhoaw4eL_sK-168" style="edgeStyle=none;shape=connector;rounded=0;orthogonalLoop=1;jettySize=auto;html=1;entryX=1;entryY=0.5;entryDx=0;entryDy=0;labelBackgroundColor=default;strokeColor=default;align=center;verticalAlign=middle;fontFamily=Helvetica;fontSize=11;fontColor=default;endArrow=none;endFill=0;exitX=0.5;exitY=1;exitDx=0;exitDy=0;" parent="1" source="Jv8CxRxAPjhoaw4eL_sK-171" target="Jv8CxRxAPjhoaw4eL_sK-57" edge="1">
          <mxGeometry relative="1" as="geometry">
            <mxPoint x="905" y="642" as="sourcePoint" />
            <mxPoint x="856.23" y="552.25" as="targetPoint" />
          </mxGeometry>
        </mxCell>
        <mxCell id="Jv8CxRxAPjhoaw4eL_sK-155" value="ManagerID" style="ellipse;whiteSpace=wrap;html=1;align=center;fontStyle=4;" parent="1" vertex="1">
          <mxGeometry x="223" y="621" width="80" height="29" as="geometry" />
        </mxCell>
        <mxCell id="Jv8CxRxAPjhoaw4eL_sK-166" style="edgeStyle=none;shape=connector;rounded=0;orthogonalLoop=1;jettySize=auto;html=1;exitX=0.5;exitY=0;exitDx=0;exitDy=0;entryX=0.5;entryY=1;entryDx=0;entryDy=0;labelBackgroundColor=default;strokeColor=default;align=center;verticalAlign=middle;fontFamily=Helvetica;fontSize=11;fontColor=default;endArrow=none;endFill=0;" parent="1" source="Jv8CxRxAPjhoaw4eL_sK-161" target="Jv8CxRxAPjhoaw4eL_sK-56" edge="1">
          <mxGeometry relative="1" as="geometry" />
        </mxCell>
        <mxCell id="Jv8CxRxAPjhoaw4eL_sK-170" style="edgeStyle=none;shape=connector;rounded=0;orthogonalLoop=1;jettySize=auto;html=1;exitX=0.5;exitY=0;exitDx=0;exitDy=0;labelBackgroundColor=default;strokeColor=default;align=center;verticalAlign=middle;fontFamily=Helvetica;fontSize=11;fontColor=default;endArrow=none;endFill=0;entryX=0.5;entryY=1;entryDx=0;entryDy=0;" parent="1" source="Jv8CxRxAPjhoaw4eL_sK-165" target="Jv8CxRxAPjhoaw4eL_sK-56" edge="1">
          <mxGeometry relative="1" as="geometry">
            <mxPoint x="657" y="864" as="targetPoint" />
          </mxGeometry>
        </mxCell>
        <mxCell id="Jv8CxRxAPjhoaw4eL_sK-161" value="Director_ID" style="ellipse;whiteSpace=wrap;html=1;align=center;fontStyle=4;" parent="1" vertex="1">
          <mxGeometry x="648" y="900.75" width="79" height="29" as="geometry" />
        </mxCell>
        <mxCell id="Jv8CxRxAPjhoaw4eL_sK-169" style="edgeStyle=none;shape=connector;rounded=0;orthogonalLoop=1;jettySize=auto;html=1;exitX=0.5;exitY=0;exitDx=0;exitDy=0;entryX=0.5;entryY=1;entryDx=0;entryDy=0;labelBackgroundColor=default;strokeColor=default;align=center;verticalAlign=middle;fontFamily=Helvetica;fontSize=11;fontColor=default;endArrow=none;endFill=0;" parent="1" source="Jv8CxRxAPjhoaw4eL_sK-164" target="Jv8CxRxAPjhoaw4eL_sK-56" edge="1">
          <mxGeometry relative="1" as="geometry" />
        </mxCell>
        <mxCell id="Jv8CxRxAPjhoaw4eL_sK-174" style="edgeStyle=none;shape=connector;rounded=0;orthogonalLoop=1;jettySize=auto;html=1;exitX=0.5;exitY=0;exitDx=0;exitDy=0;entryX=0.5;entryY=1;entryDx=0;entryDy=0;labelBackgroundColor=default;strokeColor=default;align=center;verticalAlign=middle;fontFamily=Helvetica;fontSize=11;fontColor=default;endArrow=none;endFill=0;" parent="1" source="Jv8CxRxAPjhoaw4eL_sK-162" target="Jv8CxRxAPjhoaw4eL_sK-56" edge="1">
          <mxGeometry relative="1" as="geometry" />
        </mxCell>
        <mxCell id="Jv8CxRxAPjhoaw4eL_sK-162" value="First_Name" style="ellipse;whiteSpace=wrap;html=1;align=center;" parent="1" vertex="1">
          <mxGeometry x="684" y="930.5" width="81" height="29" as="geometry" />
        </mxCell>
        <mxCell id="Jv8CxRxAPjhoaw4eL_sK-167" style="edgeStyle=none;shape=connector;rounded=0;orthogonalLoop=1;jettySize=auto;html=1;exitX=0.5;exitY=0;exitDx=0;exitDy=0;labelBackgroundColor=default;strokeColor=default;align=center;verticalAlign=middle;fontFamily=Helvetica;fontSize=11;fontColor=default;endArrow=none;endFill=0;entryX=0.5;entryY=1;entryDx=0;entryDy=0;" parent="1" source="Jv8CxRxAPjhoaw4eL_sK-163" target="Jv8CxRxAPjhoaw4eL_sK-56" edge="1">
          <mxGeometry relative="1" as="geometry">
            <mxPoint x="693" y="846" as="targetPoint" />
          </mxGeometry>
        </mxCell>
        <mxCell id="Jv8CxRxAPjhoaw4eL_sK-163" value="Last_Name" style="ellipse;whiteSpace=wrap;html=1;align=center;" parent="1" vertex="1">
          <mxGeometry x="739.64" y="900" width="86" height="30.5" as="geometry" />
        </mxCell>
        <mxCell id="Jv8CxRxAPjhoaw4eL_sK-164" value="Position" style="ellipse;whiteSpace=wrap;html=1;align=center;" parent="1" vertex="1">
          <mxGeometry x="774" y="930.5" width="86" height="30.5" as="geometry" />
        </mxCell>
        <mxCell id="Jv8CxRxAPjhoaw4eL_sK-176" style="edgeStyle=none;shape=connector;rounded=0;orthogonalLoop=1;jettySize=auto;html=1;exitX=0;exitY=0.5;exitDx=0;exitDy=0;labelBackgroundColor=default;strokeColor=default;align=center;verticalAlign=middle;fontFamily=Helvetica;fontSize=11;fontColor=default;endArrow=none;endFill=0;entryX=1;entryY=0.5;entryDx=0;entryDy=0;" parent="1" source="Jv8CxRxAPjhoaw4eL_sK-172" target="Jv8CxRxAPjhoaw4eL_sK-57" edge="1">
          <mxGeometry relative="1" as="geometry">
            <mxPoint x="882" y="603" as="targetPoint" />
          </mxGeometry>
        </mxCell>
        <mxCell id="Jv8CxRxAPjhoaw4eL_sK-165" value="Email" style="ellipse;whiteSpace=wrap;html=1;align=center;" parent="1" vertex="1">
          <mxGeometry x="727" y="961" width="86" height="30.5" as="geometry" />
        </mxCell>
        <mxCell id="Jv8CxRxAPjhoaw4eL_sK-171" value="Finance_ID" style="ellipse;whiteSpace=wrap;html=1;align=center;fontStyle=4;" parent="1" vertex="1">
          <mxGeometry x="963" y="621" width="99" height="31" as="geometry" />
        </mxCell>
        <mxCell id="Jv8CxRxAPjhoaw4eL_sK-172" value="First_Name" style="ellipse;whiteSpace=wrap;html=1;align=center;" parent="1" vertex="1">
          <mxGeometry x="891" y="520" width="81" height="29" as="geometry" />
        </mxCell>
        <mxCell id="Jv8CxRxAPjhoaw4eL_sK-175" style="edgeStyle=none;shape=connector;rounded=0;orthogonalLoop=1;jettySize=auto;html=1;exitX=0;exitY=0.5;exitDx=0;exitDy=0;entryX=1;entryY=0.5;entryDx=0;entryDy=0;labelBackgroundColor=default;strokeColor=default;align=center;verticalAlign=middle;fontFamily=Helvetica;fontSize=11;fontColor=default;endArrow=none;endFill=0;" parent="1" source="Jv8CxRxAPjhoaw4eL_sK-173" target="Jv8CxRxAPjhoaw4eL_sK-57" edge="1">
          <mxGeometry relative="1" as="geometry" />
        </mxCell>
        <mxCell id="Jv8CxRxAPjhoaw4eL_sK-173" value="Last_Name" style="ellipse;whiteSpace=wrap;html=1;align=center;" parent="1" vertex="1">
          <mxGeometry x="954" y="544" width="81" height="29" as="geometry" />
        </mxCell>
        <mxCell id="Jv8CxRxAPjhoaw4eL_sK-178" style="edgeStyle=none;shape=connector;rounded=0;orthogonalLoop=1;jettySize=auto;html=1;exitX=0;exitY=0.5;exitDx=0;exitDy=0;entryX=1;entryY=0.5;entryDx=0;entryDy=0;labelBackgroundColor=default;strokeColor=default;align=center;verticalAlign=middle;fontFamily=Helvetica;fontSize=11;fontColor=default;endArrow=none;endFill=0;" parent="1" source="Jv8CxRxAPjhoaw4eL_sK-177" target="Jv8CxRxAPjhoaw4eL_sK-57" edge="1">
          <mxGeometry relative="1" as="geometry" />
        </mxCell>
        <mxCell id="Jv8CxRxAPjhoaw4eL_sK-177" value="Email" style="ellipse;whiteSpace=wrap;html=1;align=center;" parent="1" vertex="1">
          <mxGeometry x="954" y="587" width="81" height="27" as="geometry" />
        </mxCell>
        <mxCell id="Jv8CxRxAPjhoaw4eL_sK-182" value="Owns" style="shape=rhombus;perimeter=rhombusPerimeter;whiteSpace=wrap;html=1;align=center;fontFamily=Helvetica;fontSize=11;fontColor=default;fillColor=#FFE89E;fontStyle=1" parent="1" vertex="1">
          <mxGeometry x="399" y="792" width="120" height="60" as="geometry" />
        </mxCell>
        <mxCell id="Jv8CxRxAPjhoaw4eL_sK-183" value="Controls" style="shape=rhombus;perimeter=rhombusPerimeter;whiteSpace=wrap;html=1;align=center;fontFamily=Helvetica;fontSize=11;fontColor=default;fillColor=#FFE89E;fontStyle=1" parent="1" vertex="1">
          <mxGeometry x="432" y="711" width="102" height="63" as="geometry" />
        </mxCell>
        <mxCell id="Jv8CxRxAPjhoaw4eL_sK-185" value="Controls" style="shape=rhombus;perimeter=rhombusPerimeter;whiteSpace=wrap;html=1;align=center;fontFamily=Helvetica;fontSize=11;fontColor=default;fillColor=#FFE89E;fontStyle=1" parent="1" vertex="1">
          <mxGeometry x="724" y="711" width="104" height="54" as="geometry" />
        </mxCell>
        <mxCell id="Jv8CxRxAPjhoaw4eL_sK-189" value="Scout" style="shape=rhombus;perimeter=rhombusPerimeter;whiteSpace=wrap;html=1;align=center;fontFamily=Helvetica;fontSize=11;fontColor=default;fillColor=#FFE89E;fontStyle=1" parent="1" vertex="1">
          <mxGeometry x="549" y="351.5" width="120" height="60" as="geometry" />
        </mxCell>
        <mxCell id="Jv8CxRxAPjhoaw4eL_sK-191" value="Aid" style="shape=rhombus;perimeter=rhombusPerimeter;whiteSpace=wrap;html=1;align=center;fontFamily=Helvetica;fontSize=11;fontColor=default;fillColor=#FFE89E;fontStyle=1" parent="1" vertex="1">
          <mxGeometry x="268" y="371" width="120" height="61" as="geometry" />
        </mxCell>
        <mxCell id="Jv8CxRxAPjhoaw4eL_sK-194" value="Supply" style="shape=rhombus;perimeter=rhombusPerimeter;whiteSpace=wrap;html=1;align=center;fontFamily=Helvetica;fontSize=11;fontColor=default;fillColor=#FFE89E;fontStyle=1" parent="1" vertex="1">
          <mxGeometry x="576" y="605.5" width="120" height="60" as="geometry" />
        </mxCell>
        <mxCell id="0EcRMQxFzFrVklDDm5Fc-7" value="" style="shape=link;html=1;rounded=0;entryX=0;entryY=0.5;entryDx=0;entryDy=0;exitX=1;exitY=0.5;exitDx=0;exitDy=0;" parent="1" source="b-6N9gmP39iT4xV7Av2K-2" target="Jv8CxRxAPjhoaw4eL_sK-187" edge="1">
          <mxGeometry relative="1" as="geometry">
            <mxPoint x="135" y="297" as="sourcePoint" />
            <mxPoint x="390" y="290" as="targetPoint" />
          </mxGeometry>
        </mxCell>
        <mxCell id="0EcRMQxFzFrVklDDm5Fc-8" value="M" style="resizable=0;html=1;whiteSpace=wrap;align=left;verticalAlign=bottom;" parent="0EcRMQxFzFrVklDDm5Fc-7" connectable="0" vertex="1">
          <mxGeometry x="-1" relative="1" as="geometry">
            <mxPoint x="4" as="offset" />
          </mxGeometry>
        </mxCell>
        <mxCell id="Jv8CxRxAPjhoaw4eL_sK-187" value="Support" style="shape=rhombus;perimeter=rhombusPerimeter;whiteSpace=wrap;html=1;align=center;fontFamily=Helvetica;fontSize=11;fontColor=default;fillColor=#FFE89E;fontStyle=1" parent="1" vertex="1">
          <mxGeometry x="199" y="260" width="120" height="60" as="geometry" />
        </mxCell>
        <mxCell id="0EcRMQxFzFrVklDDm5Fc-11" value="" style="shape=link;html=1;rounded=0;entryX=0;entryY=0.5;entryDx=0;entryDy=0;exitX=1;exitY=0.5;exitDx=0;exitDy=0;" parent="1" source="Jv8CxRxAPjhoaw4eL_sK-182" target="Jv8CxRxAPjhoaw4eL_sK-56" edge="1">
          <mxGeometry relative="1" as="geometry">
            <mxPoint x="414" y="909" as="sourcePoint" />
            <mxPoint x="574" y="909" as="targetPoint" />
          </mxGeometry>
        </mxCell>
        <mxCell id="0EcRMQxFzFrVklDDm5Fc-12" value="N" style="resizable=0;html=1;whiteSpace=wrap;align=right;verticalAlign=bottom;" parent="0EcRMQxFzFrVklDDm5Fc-11" connectable="0" vertex="1">
          <mxGeometry x="1" relative="1" as="geometry">
            <mxPoint x="-13" as="offset" />
          </mxGeometry>
        </mxCell>
        <mxCell id="0EcRMQxFzFrVklDDm5Fc-13" value="" style="shape=link;html=1;rounded=0;entryX=1;entryY=0.5;entryDx=0;entryDy=0;exitX=0;exitY=0.5;exitDx=0;exitDy=0;" parent="1" source="Jv8CxRxAPjhoaw4eL_sK-182" target="Jv8CxRxAPjhoaw4eL_sK-42" edge="1">
          <mxGeometry relative="1" as="geometry">
            <mxPoint x="405" y="981" as="sourcePoint" />
            <mxPoint x="565" y="981" as="targetPoint" />
          </mxGeometry>
        </mxCell>
        <mxCell id="0EcRMQxFzFrVklDDm5Fc-14" value="1" style="resizable=0;html=1;whiteSpace=wrap;align=right;verticalAlign=bottom;" parent="0EcRMQxFzFrVklDDm5Fc-13" connectable="0" vertex="1">
          <mxGeometry x="1" relative="1" as="geometry">
            <mxPoint x="13" as="offset" />
          </mxGeometry>
        </mxCell>
        <mxCell id="0EcRMQxFzFrVklDDm5Fc-19" value="" style="shape=link;html=1;rounded=0;exitX=0.644;exitY=0.148;exitDx=0;exitDy=0;exitPerimeter=0;entryX=0.397;entryY=1.026;entryDx=0;entryDy=0;entryPerimeter=0;" parent="1" source="Jv8CxRxAPjhoaw4eL_sK-191" target="Jv8CxRxAPjhoaw4eL_sK-25" edge="1">
          <mxGeometry relative="1" as="geometry">
            <mxPoint x="279" y="477" as="sourcePoint" />
            <mxPoint x="449" y="324" as="targetPoint" />
          </mxGeometry>
        </mxCell>
        <mxCell id="0EcRMQxFzFrVklDDm5Fc-20" value="N" style="resizable=0;html=1;whiteSpace=wrap;align=right;verticalAlign=bottom;" parent="0EcRMQxFzFrVklDDm5Fc-19" connectable="0" vertex="1">
          <mxGeometry x="1" relative="1" as="geometry">
            <mxPoint x="-26" y="16" as="offset" />
          </mxGeometry>
        </mxCell>
        <mxCell id="0EcRMQxFzFrVklDDm5Fc-21" value="" style="shape=link;html=1;rounded=0;entryX=1;entryY=0;entryDx=0;entryDy=0;exitX=0;exitY=1;exitDx=0;exitDy=0;" parent="1" source="Jv8CxRxAPjhoaw4eL_sK-191" target="Jv8CxRxAPjhoaw4eL_sK-47" edge="1">
          <mxGeometry relative="1" as="geometry">
            <mxPoint x="275" y="441" as="sourcePoint" />
            <mxPoint x="435" y="441" as="targetPoint" />
          </mxGeometry>
        </mxCell>
        <mxCell id="0EcRMQxFzFrVklDDm5Fc-22" value="1" style="resizable=0;html=1;whiteSpace=wrap;align=right;verticalAlign=bottom;" parent="0EcRMQxFzFrVklDDm5Fc-21" connectable="0" vertex="1">
          <mxGeometry x="1" relative="1" as="geometry" />
        </mxCell>
        <mxCell id="0EcRMQxFzFrVklDDm5Fc-25" value="" style="shape=link;html=1;rounded=0;entryX=0;entryY=0.25;entryDx=0;entryDy=0;exitX=1;exitY=1;exitDx=0;exitDy=0;" parent="1" source="Jv8CxRxAPjhoaw4eL_sK-189" target="Jv8CxRxAPjhoaw4eL_sK-40" edge="1">
          <mxGeometry relative="1" as="geometry">
            <mxPoint x="653" y="427" as="sourcePoint" />
            <mxPoint x="565" y="487" as="targetPoint" />
          </mxGeometry>
        </mxCell>
        <mxCell id="0EcRMQxFzFrVklDDm5Fc-26" value="1" style="resizable=0;html=1;whiteSpace=wrap;align=right;verticalAlign=bottom;" parent="0EcRMQxFzFrVklDDm5Fc-25" connectable="0" vertex="1">
          <mxGeometry x="1" relative="1" as="geometry">
            <mxPoint y="-11" as="offset" />
          </mxGeometry>
        </mxCell>
        <mxCell id="0EcRMQxFzFrVklDDm5Fc-28" value="Manages" style="shape=rhombus;perimeter=rhombusPerimeter;whiteSpace=wrap;html=1;align=center;fontFamily=Helvetica;fontSize=11;fontColor=default;fillColor=#FFE89E;fontStyle=1" parent="1" vertex="1">
          <mxGeometry x="390" y="417" width="120" height="60" as="geometry" />
        </mxCell>
        <mxCell id="0EcRMQxFzFrVklDDm5Fc-30" value="" style="shape=link;html=1;rounded=0;exitX=0.5;exitY=0;exitDx=0;exitDy=0;entryX=0.5;entryY=1;entryDx=0;entryDy=0;" parent="1" source="0EcRMQxFzFrVklDDm5Fc-28" target="Jv8CxRxAPjhoaw4eL_sK-25" edge="1">
          <mxGeometry relative="1" as="geometry">
            <mxPoint x="534" y="399" as="sourcePoint" />
            <mxPoint x="443" y="327" as="targetPoint" />
          </mxGeometry>
        </mxCell>
        <mxCell id="0EcRMQxFzFrVklDDm5Fc-31" value="N" style="resizable=0;html=1;whiteSpace=wrap;align=right;verticalAlign=bottom;" parent="0EcRMQxFzFrVklDDm5Fc-30" connectable="0" vertex="1">
          <mxGeometry x="1" relative="1" as="geometry">
            <mxPoint x="64" y="14" as="offset" />
          </mxGeometry>
        </mxCell>
        <mxCell id="0EcRMQxFzFrVklDDm5Fc-32" value="" style="shape=link;html=1;rounded=0;entryX=0.5;entryY=0;entryDx=0;entryDy=0;exitX=0.5;exitY=1;exitDx=0;exitDy=0;" parent="1" source="0EcRMQxFzFrVklDDm5Fc-28" target="Jv8CxRxAPjhoaw4eL_sK-26" edge="1">
          <mxGeometry relative="1" as="geometry">
            <mxPoint x="468" y="486" as="sourcePoint" />
            <mxPoint x="565" y="544" as="targetPoint" />
            <Array as="points" />
          </mxGeometry>
        </mxCell>
        <mxCell id="0EcRMQxFzFrVklDDm5Fc-33" value="1" style="resizable=0;html=1;whiteSpace=wrap;align=right;verticalAlign=bottom;" parent="0EcRMQxFzFrVklDDm5Fc-32" connectable="0" vertex="1">
          <mxGeometry x="1" relative="1" as="geometry">
            <mxPoint x="-9" y="-5" as="offset" />
          </mxGeometry>
        </mxCell>
        <mxCell id="0EcRMQxFzFrVklDDm5Fc-35" value="Manages" style="shape=rhombus;perimeter=rhombusPerimeter;whiteSpace=wrap;html=1;align=center;fontFamily=Helvetica;fontSize=11;fontColor=default;fillColor=#FFE89E;fontStyle=1" parent="1" vertex="1">
          <mxGeometry x="213" y="540" width="120" height="60" as="geometry" />
        </mxCell>
        <mxCell id="0EcRMQxFzFrVklDDm5Fc-34" value="Manages" style="shape=rhombus;perimeter=rhombusPerimeter;whiteSpace=wrap;html=1;align=center;fontFamily=Helvetica;fontSize=11;fontColor=default;fillColor=#FFE89E;fontStyle=1" parent="1" vertex="1">
          <mxGeometry x="549" y="510" width="120" height="60" as="geometry" />
        </mxCell>
        <mxCell id="0EcRMQxFzFrVklDDm5Fc-38" value="" style="shape=link;html=1;rounded=0;entryX=0.5;entryY=1;entryDx=0;entryDy=0;exitX=0;exitY=0;exitDx=0;exitDy=0;" parent="1" source="0EcRMQxFzFrVklDDm5Fc-35" target="Jv8CxRxAPjhoaw4eL_sK-47" edge="1">
          <mxGeometry relative="1" as="geometry">
            <mxPoint x="307" y="426" as="sourcePoint" />
            <mxPoint x="219" y="486" as="targetPoint" />
          </mxGeometry>
        </mxCell>
        <mxCell id="0EcRMQxFzFrVklDDm5Fc-39" value="1" style="resizable=0;html=1;whiteSpace=wrap;align=right;verticalAlign=bottom;" parent="0EcRMQxFzFrVklDDm5Fc-38" connectable="0" vertex="1">
          <mxGeometry x="1" relative="1" as="geometry">
            <mxPoint x="10" y="27" as="offset" />
          </mxGeometry>
        </mxCell>
        <mxCell id="0EcRMQxFzFrVklDDm5Fc-40" value="" style="shape=link;html=1;rounded=0;entryX=1;entryY=1;entryDx=0;entryDy=0;exitX=0;exitY=0.5;exitDx=0;exitDy=0;" parent="1" source="Jv8CxRxAPjhoaw4eL_sK-26" target="0EcRMQxFzFrVklDDm5Fc-35" edge="1">
          <mxGeometry relative="1" as="geometry">
            <mxPoint x="252" y="564" as="sourcePoint" />
            <mxPoint x="169" y="526" as="targetPoint" />
          </mxGeometry>
        </mxCell>
        <mxCell id="0EcRMQxFzFrVklDDm5Fc-41" value="1" style="resizable=0;html=1;whiteSpace=wrap;align=right;verticalAlign=bottom;" parent="0EcRMQxFzFrVklDDm5Fc-40" connectable="0" vertex="1">
          <mxGeometry x="1" relative="1" as="geometry">
            <mxPoint x="88" y="15" as="offset" />
          </mxGeometry>
        </mxCell>
        <mxCell id="0EcRMQxFzFrVklDDm5Fc-42" value="" style="shape=link;html=1;rounded=0;exitX=1;exitY=0;exitDx=0;exitDy=0;entryX=0;entryY=1;entryDx=0;entryDy=0;" parent="1" source="Jv8CxRxAPjhoaw4eL_sK-26" target="0EcRMQxFzFrVklDDm5Fc-34" edge="1">
          <mxGeometry relative="1" as="geometry">
            <mxPoint x="555" y="570" as="sourcePoint" />
            <mxPoint x="580" y="553" as="targetPoint" />
            <Array as="points" />
          </mxGeometry>
        </mxCell>
        <mxCell id="0EcRMQxFzFrVklDDm5Fc-43" value="1" style="resizable=0;html=1;whiteSpace=wrap;align=right;verticalAlign=bottom;" parent="0EcRMQxFzFrVklDDm5Fc-42" connectable="0" vertex="1">
          <mxGeometry x="1" relative="1" as="geometry">
            <mxPoint x="-80" y="32" as="offset" />
          </mxGeometry>
        </mxCell>
        <mxCell id="0EcRMQxFzFrVklDDm5Fc-44" value="" style="shape=link;html=1;rounded=0;entryX=1;entryY=0;entryDx=0;entryDy=0;exitX=0;exitY=1;exitDx=0;exitDy=0;" parent="1" source="Jv8CxRxAPjhoaw4eL_sK-40" target="0EcRMQxFzFrVklDDm5Fc-34" edge="1">
          <mxGeometry relative="1" as="geometry">
            <mxPoint x="675" y="580" as="sourcePoint" />
            <mxPoint x="746" y="534" as="targetPoint" />
            <Array as="points" />
          </mxGeometry>
        </mxCell>
        <mxCell id="0EcRMQxFzFrVklDDm5Fc-45" value="1" style="resizable=0;html=1;whiteSpace=wrap;align=right;verticalAlign=bottom;" parent="0EcRMQxFzFrVklDDm5Fc-44" connectable="0" vertex="1">
          <mxGeometry x="1" relative="1" as="geometry">
            <mxPoint x="81" y="-41" as="offset" />
          </mxGeometry>
        </mxCell>
        <mxCell id="0EcRMQxFzFrVklDDm5Fc-46" value="" style="shape=link;html=1;rounded=0;exitX=0;exitY=0;exitDx=0;exitDy=0;entryX=0.75;entryY=1;entryDx=0;entryDy=0;" parent="1" source="Jv8CxRxAPjhoaw4eL_sK-189" target="Jv8CxRxAPjhoaw4eL_sK-25" edge="1">
          <mxGeometry relative="1" as="geometry">
            <mxPoint x="354" y="389" as="sourcePoint" />
            <mxPoint x="448" y="317" as="targetPoint" />
          </mxGeometry>
        </mxCell>
        <mxCell id="0EcRMQxFzFrVklDDm5Fc-48" value="N" style="resizable=0;html=1;whiteSpace=wrap;align=right;verticalAlign=bottom;" parent="1" connectable="0" vertex="1">
          <mxGeometry x="521.9942552354778" y="329.33790355962105" as="geometry">
            <mxPoint x="-51" y="1" as="offset" />
          </mxGeometry>
        </mxCell>
        <mxCell id="0EcRMQxFzFrVklDDm5Fc-49" value="" style="shape=link;html=1;rounded=0;exitX=1;exitY=0.75;exitDx=0;exitDy=0;entryX=0;entryY=0.5;entryDx=0;entryDy=0;" parent="1" source="Jv8CxRxAPjhoaw4eL_sK-26" target="Jv8CxRxAPjhoaw4eL_sK-194" edge="1">
          <mxGeometry relative="1" as="geometry">
            <mxPoint x="496" y="675" as="sourcePoint" />
            <mxPoint x="576" y="639" as="targetPoint" />
            <Array as="points" />
          </mxGeometry>
        </mxCell>
        <mxCell id="0EcRMQxFzFrVklDDm5Fc-50" value="1" style="resizable=0;html=1;whiteSpace=wrap;align=right;verticalAlign=bottom;" parent="0EcRMQxFzFrVklDDm5Fc-49" connectable="0" vertex="1">
          <mxGeometry x="1" relative="1" as="geometry">
            <mxPoint x="-45" y="-15" as="offset" />
          </mxGeometry>
        </mxCell>
        <mxCell id="0EcRMQxFzFrVklDDm5Fc-51" value="" style="shape=link;html=1;rounded=0;exitX=0;exitY=0.5;exitDx=0;exitDy=0;entryX=1;entryY=0.5;entryDx=0;entryDy=0;" parent="1" source="Jv8CxRxAPjhoaw4eL_sK-57" target="Jv8CxRxAPjhoaw4eL_sK-194" edge="1">
          <mxGeometry relative="1" as="geometry">
            <mxPoint x="517" y="609" as="sourcePoint" />
            <mxPoint x="597" y="573" as="targetPoint" />
            <Array as="points" />
          </mxGeometry>
        </mxCell>
        <mxCell id="0EcRMQxFzFrVklDDm5Fc-52" value="1" style="resizable=0;html=1;whiteSpace=wrap;align=right;verticalAlign=bottom;" parent="0EcRMQxFzFrVklDDm5Fc-51" connectable="0" vertex="1">
          <mxGeometry x="1" relative="1" as="geometry">
            <mxPoint x="69" y="-6" as="offset" />
          </mxGeometry>
        </mxCell>
        <mxCell id="0EcRMQxFzFrVklDDm5Fc-53" value="" style="shape=link;html=1;rounded=0;exitX=0.406;exitY=1.05;exitDx=0;exitDy=0;exitPerimeter=0;entryX=0.603;entryY=0.068;entryDx=0;entryDy=0;entryPerimeter=0;" parent="1" source="Jv8CxRxAPjhoaw4eL_sK-57" target="Jv8CxRxAPjhoaw4eL_sK-185" edge="1">
          <mxGeometry relative="1" as="geometry">
            <mxPoint x="737.27" y="774" as="sourcePoint" />
            <mxPoint x="693" y="765" as="targetPoint" />
            <Array as="points" />
          </mxGeometry>
        </mxCell>
        <mxCell id="0EcRMQxFzFrVklDDm5Fc-54" value="1" style="resizable=0;html=1;whiteSpace=wrap;align=right;verticalAlign=bottom;" parent="0EcRMQxFzFrVklDDm5Fc-53" connectable="0" vertex="1">
          <mxGeometry x="1" relative="1" as="geometry">
            <mxPoint x="42" y="-40" as="offset" />
          </mxGeometry>
        </mxCell>
        <mxCell id="0EcRMQxFzFrVklDDm5Fc-55" value="" style="shape=link;html=1;rounded=0;exitX=1;exitY=0;exitDx=0;exitDy=0;entryX=0.346;entryY=0.833;entryDx=0;entryDy=0;entryPerimeter=0;" parent="1" source="Jv8CxRxAPjhoaw4eL_sK-56" target="Jv8CxRxAPjhoaw4eL_sK-185" edge="1">
          <mxGeometry relative="1" as="geometry">
            <mxPoint x="792" y="648" as="sourcePoint" />
            <mxPoint x="714" y="654" as="targetPoint" />
            <Array as="points" />
          </mxGeometry>
        </mxCell>
        <mxCell id="0EcRMQxFzFrVklDDm5Fc-56" value="1" style="resizable=0;html=1;whiteSpace=wrap;align=right;verticalAlign=bottom;" parent="0EcRMQxFzFrVklDDm5Fc-55" connectable="0" vertex="1">
          <mxGeometry x="1" relative="1" as="geometry">
            <mxPoint x="-4" y="45" as="offset" />
          </mxGeometry>
        </mxCell>
        <mxCell id="0EcRMQxFzFrVklDDm5Fc-57" value="" style="shape=link;html=1;rounded=0;exitX=0.5;exitY=1;exitDx=0;exitDy=0;entryX=0.5;entryY=0;entryDx=0;entryDy=0;" parent="1" source="Jv8CxRxAPjhoaw4eL_sK-26" target="Jv8CxRxAPjhoaw4eL_sK-183" edge="1">
          <mxGeometry relative="1" as="geometry">
            <mxPoint x="801" y="657" as="sourcePoint" />
            <mxPoint x="723" y="663" as="targetPoint" />
            <Array as="points" />
          </mxGeometry>
        </mxCell>
        <mxCell id="0EcRMQxFzFrVklDDm5Fc-58" value="1" style="resizable=0;html=1;whiteSpace=wrap;align=right;verticalAlign=bottom;" parent="0EcRMQxFzFrVklDDm5Fc-57" connectable="0" vertex="1">
          <mxGeometry x="1" relative="1" as="geometry">
            <mxPoint x="-10" y="-54" as="offset" />
          </mxGeometry>
        </mxCell>
        <mxCell id="0EcRMQxFzFrVklDDm5Fc-59" value="" style="shape=link;html=1;rounded=0;exitX=0.25;exitY=0;exitDx=0;exitDy=0;entryX=1;entryY=1;entryDx=0;entryDy=0;" parent="1" source="Jv8CxRxAPjhoaw4eL_sK-56" target="Jv8CxRxAPjhoaw4eL_sK-183" edge="1">
          <mxGeometry relative="1" as="geometry">
            <mxPoint x="810" y="666" as="sourcePoint" />
            <mxPoint x="732" y="672" as="targetPoint" />
            <Array as="points" />
          </mxGeometry>
        </mxCell>
        <mxCell id="0EcRMQxFzFrVklDDm5Fc-60" value="1" style="resizable=0;html=1;whiteSpace=wrap;align=right;verticalAlign=bottom;" parent="0EcRMQxFzFrVklDDm5Fc-59" connectable="0" vertex="1">
          <mxGeometry x="1" relative="1" as="geometry">
            <mxPoint x="131" y="34" as="offset" />
          </mxGeometry>
        </mxCell>
        <mxCell id="ptD6OZxUXEIBR8QLuf2V-1" value="" style="endArrow=none;html=1;rounded=0;exitX=1;exitY=0.5;exitDx=0;exitDy=0;entryX=0;entryY=0.5;entryDx=0;entryDy=0;" parent="1" source="Jv8CxRxAPjhoaw4eL_sK-187" target="Jv8CxRxAPjhoaw4eL_sK-25" edge="1">
          <mxGeometry relative="1" as="geometry">
            <mxPoint x="342" y="297" as="sourcePoint" />
            <mxPoint x="502" y="297" as="targetPoint" />
          </mxGeometry>
        </mxCell>
        <mxCell id="ptD6OZxUXEIBR8QLuf2V-2" value="N" style="resizable=0;html=1;whiteSpace=wrap;align=right;verticalAlign=bottom;" parent="ptD6OZxUXEIBR8QLuf2V-1" connectable="0" vertex="1">
          <mxGeometry x="1" relative="1" as="geometry">
            <mxPoint x="-9" as="offset" />
          </mxGeometry>
        </mxCell>
        <mxCell id="ptD6OZxUXEIBR8QLuf2V-3" value="&lt;div style=&quot;box-sizing:border-box;width:100%;background:#e4e4e4;padding:2px;&quot;&gt;Board_of_Directors&lt;/div&gt;&lt;table style=&quot;width:100%;font-size:1em;&quot; cellpadding=&quot;2&quot; cellspacing=&quot;0&quot;&gt;&lt;tbody&gt;&lt;tr&gt;&lt;td&gt;PK&amp;nbsp; &amp;nbsp; &amp;nbsp; &amp;nbsp; Director_ID&lt;br&gt;&amp;nbsp; &amp;nbsp; &amp;nbsp; &amp;nbsp; &amp;nbsp; &amp;nbsp; &amp;nbsp;First_Name&lt;br&gt;&amp;nbsp; &amp;nbsp; &amp;nbsp; &amp;nbsp; &amp;nbsp; &amp;nbsp; &amp;nbsp;Last_Name&lt;br&gt;&amp;nbsp; &amp;nbsp; &amp;nbsp; &amp;nbsp; &amp;nbsp; &amp;nbsp; &amp;nbsp;Position&lt;br&gt;&amp;nbsp; &amp;nbsp; &amp;nbsp; &amp;nbsp; &amp;nbsp; &amp;nbsp; &amp;nbsp;Email&lt;/td&gt;&lt;td&gt;&lt;/td&gt;&lt;/tr&gt;&lt;tr&gt;&lt;td&gt;FK&amp;nbsp; &amp;nbsp; &amp;nbsp; &amp;nbsp; Seat No&lt;/td&gt;&lt;td&gt;&lt;br&gt;&lt;/td&gt;&lt;/tr&gt;&lt;tr&gt;&lt;td&gt;&lt;/td&gt;&lt;td&gt;&lt;br&gt;&lt;/td&gt;&lt;/tr&gt;&lt;/tbody&gt;&lt;/table&gt;" style="verticalAlign=top;align=left;overflow=fill;html=1;whiteSpace=wrap;" parent="1" vertex="1">
          <mxGeometry x="1026" y="103" width="135" height="176" as="geometry" />
        </mxCell>
        <mxCell id="ptD6OZxUXEIBR8QLuf2V-5" value="&lt;div style=&quot;box-sizing:border-box;width:100%;background:#e4e4e4;padding:2px;&quot;&gt;Stadium&lt;/div&gt;&lt;table style=&quot;width:100%;font-size:1em;&quot; cellpadding=&quot;2&quot; cellspacing=&quot;0&quot;&gt;&lt;tbody&gt;&lt;tr&gt;&lt;td&gt;PK&lt;/td&gt;&lt;td&gt;Seat_No&lt;/td&gt;&lt;/tr&gt;&lt;tr&gt;&lt;td&gt;&lt;br&gt;&lt;/td&gt;&lt;td&gt;Capacity&lt;/td&gt;&lt;/tr&gt;&lt;tr&gt;&lt;td&gt;&lt;/td&gt;&lt;td&gt;Section&lt;br&gt;Gate&lt;/td&gt;&lt;/tr&gt;&lt;/tbody&gt;&lt;/table&gt;" style="verticalAlign=top;align=left;overflow=fill;html=1;whiteSpace=wrap;" parent="1" vertex="1">
          <mxGeometry x="1179" y="103" width="180" height="90" as="geometry" />
        </mxCell>
        <mxCell id="ptD6OZxUXEIBR8QLuf2V-6" value="Gate" style="ellipse;whiteSpace=wrap;html=1;align=center;" parent="1" vertex="1">
          <mxGeometry x="306" y="920" width="74" height="29" as="geometry" />
        </mxCell>
        <mxCell id="ptD6OZxUXEIBR8QLuf2V-8" value="&lt;div style=&quot;box-sizing:border-box;width:100%;background:#e4e4e4;padding:2px;&quot;&gt;Finance_Team&lt;/div&gt;&lt;table style=&quot;width:100%;font-size:1em;&quot; cellpadding=&quot;2&quot; cellspacing=&quot;0&quot;&gt;&lt;tbody&gt;&lt;tr&gt;&lt;td&gt;PK&lt;/td&gt;&lt;td&gt;Finance_ID&lt;br&gt;&lt;/td&gt;&lt;/tr&gt;&lt;tr&gt;&lt;td&gt;&amp;nbsp; &amp;nbsp; &amp;nbsp;&lt;/td&gt;&lt;td&gt;First_Name&lt;br&gt;Last_Name&lt;br&gt;Email&lt;/td&gt;&lt;/tr&gt;&lt;/tbody&gt;&lt;/table&gt;" style="verticalAlign=top;align=left;overflow=fill;html=1;whiteSpace=wrap;" parent="1" vertex="1">
          <mxGeometry x="1035" y="327" width="180" height="90" as="geometry" />
        </mxCell>
        <mxCell id="b-6N9gmP39iT4xV7Av2K-1" value="&lt;div style=&quot;box-sizing:border-box;width:100%;background:#e4e4e4;padding:2px;&quot;&gt;Fans&lt;/div&gt;&lt;table style=&quot;width:100%;font-size:1em;&quot; cellpadding=&quot;2&quot; cellspacing=&quot;0&quot;&gt;&lt;tbody&gt;&lt;tr&gt;&lt;td&gt;PK&lt;/td&gt;&lt;td&gt;Membership_ID&lt;br&gt;&lt;/td&gt;&lt;/tr&gt;&lt;tr&gt;&lt;td&gt;FK&lt;/td&gt;&lt;td&gt;Email&lt;br&gt;First_Name&lt;br&gt;Last_Name&lt;br&gt;D.O.B&lt;br&gt;Player_ID&lt;br&gt;&lt;br&gt;&lt;br&gt;&lt;br&gt;&lt;br&gt;&lt;/td&gt;&lt;/tr&gt;&lt;/tbody&gt;&lt;/table&gt;" style="verticalAlign=top;align=left;overflow=fill;html=1;whiteSpace=wrap;" vertex="1" parent="1">
          <mxGeometry x="1269" y="298.11" width="171" height="175" as="geometry" />
        </mxCell>
        <mxCell id="b-6N9gmP39iT4xV7Av2K-2" value="Fans" style="rounded=1;arcSize=10;whiteSpace=wrap;html=1;align=center;fillColor=#80FF84;" vertex="1" parent="1">
          <mxGeometry x="19" y="270" width="100" height="40" as="geometry" />
        </mxCell>
      </root>
    </mxGraphModel>
  </diagram>
</mxfile>
